<?xml version="1.0" encoding="utf-8"?>
<!-- Generator: Adobe Illustrator 26.3.1, SVG Export Plug-In . SVG Version: 6.00 Build 0)  -->
<svg version="1.1" id="Layer_1" xmlns="http://www.w3.org/2000/svg" xmlns:xlink="http://www.w3.org/1999/xlink" x="0px" y="0px"
	 viewBox="0 0 630 630" style="enable-background:new 0 0 630 630;" xml:space="preserve">
<style type="text/css">
	.st0{fill:#E53757;}
</style>
<g>
	<g>
		<path class="st0" d="M53.14,448.27c-0.56-0.94-1.1-1.9-1.66-2.84c-3.69-8.63-7.38-17.28-11.07-25.91
			c-3.59-11.92-7.69-23.71-10.68-35.77c-8.83-35.53-10.33-71.55-5.58-107.81c4.71-35.94,15.96-69.77,33.26-101.61
			c3.59-6.61,6.66-13.53,10.42-20.05c2.01-3.49,5.09-6.35,7.5-9.62c2.06-2.79,3.58-6,5.82-8.61c4.32-5.05,9.06-9.74,13.48-14.7
			C131.66,79.72,176.56,50,230.07,34.44c83.13-24.18,162.4-14.22,237.04,29.85c24.4,14.41,45.81,32.6,64.96,53.57
			c33.22,36.39,55.74,78.49,67.68,126.13c9.97,39.78,11.38,80.02,4.45,120.56c-3.99,23.33-10.4,45.87-20.07,67.49
			c-3.29,7.35-5.58,15.31-9.83,22.04c-9.49,15.02-19.17,30.05-30.15,43.98c-28.08,35.63-62.97,62.98-104.04,82.39
			c-4.84,2.29-9.3,5.4-14.12,7.78c-2.25,1.11-4.94,1.32-7.41,2.02c-13.13,3.69-26.15,7.94-39.43,10.99
			c-33.49,7.7-67.38,9.06-101.48,4.75c-20.67-2.61-40.68-7.84-60.57-14.11c-20.04-6.32-37.9-16.69-55.88-26.99
			c-7.84-4.49-15.56-9.23-22.96-14.39c-6.1-4.25-12.06-8.87-17.35-14.09c-9.17-9.04-17.7-18.71-26.65-27.98
			c-2.12-2.2-4.81-3.84-7.18-5.81c-0.94-0.78-1.85-1.65-2.55-2.64c-6.96-9.88-14.12-19.64-20.67-29.79
			c-2.94-4.55-4.59-9.92-6.9-14.89c-0.7-1.52-1.65-2.93-2.48-4.39C54.04,450.01,53.59,449.14,53.14,448.27z M350.48,393.89
			c1.06-1.04,2.11-2.08,3.17-3.12c0.38-0.35,0.76-0.7,1.14-1.06c1.56-1.47,3.11-2.95,4.67-4.43c5.73-5.1,11.75-9.92,17.14-15.36
			c8.39-8.46,12.47-18.93,12.61-30.85c0.29-24.64,1.04-49.29,0.61-73.91c-0.29-16.57-1.46-33.23-3.69-49.64
			c-2.14-15.79-11.54-24.36-27.27-27.2c-5.11-0.92-10.42-1.24-15.63-1.16c-35.71,0.54-71.43,1.1-107.13,1.97
			c-30.48,0.74-55.76,23.98-59.65,54.23c-5.34,41.54-10.68,83.07-16.19,124.58c-2.08,15.75,10.84,30.67,26.96,30.24
			c23.55-0.61,47.11-0.51,70.67-0.65c5.81-0.04,6.89,1.68,4.71,7.09c-6.27,15.49-10.74,31.46-12.86,48.05
			c-1.91,14.93-1.32,29.78,1.34,44.56c0.9,7.11,2.91,13.53,10.37,16.53c1.52,0.44,3.04,0.87,4.56,1.31
			c2.19,0.31,4.36,0.61,6.55,0.93c0.62-0.03,1.23-0.06,1.85-0.09c0.63-0.01,1.26-0.02,1.9-0.03c0.6-0.06,1.2-0.1,1.81-0.16
			c0.59-0.04,1.19-0.06,1.79-0.1c0.94-0.1,1.87-0.21,2.82-0.32c2.58-0.72,5.15-1.45,7.73-2.18c4.89-1.39,5.43-5.41,5.49-9.5
			c0.06-4.3-0.44-8.61-0.29-12.91c0.75-21.58,9.78-40.16,21.87-57.33c7.23-10.27,15.63-19.72,23.5-29.53
			c3.17-3.33,6.33-6.64,9.49-9.97l-0.16-0.22L350.48,393.89z M502.84,258.65c0.05,0,0.09,0,0.14,0
			c-0.56-17.54-0.67-35.12-1.81-52.62c-0.91-13.93-11.9-23.34-25.79-23.06c-18.45,0.38-36.89,0.93-55.33,1.66
			c-3.29,0.13-6.8,0.94-9.75,2.38c-11.2,5.47-14.83,15.02-14.45,27.02c1.41,44.78,2.64,89.55,3.76,134.33
			c0.42,16.68,10.81,27.21,27.36,26.88c17.53-0.35,35.07-0.81,52.6-1.36c15.94-0.5,26.26-11.58,25.81-27.54
			C504.54,317.12,503.68,287.88,502.84,258.65z"/>
		<path class="st0" d="M418.53,198.62c5.56,0.06,10.16,4.91,10.01,10.53c-0.13,4.89-5.12,9.61-10.1,9.56
			c-5.44-0.06-10-4.71-9.93-10.1C408.6,203.13,413.18,198.55,418.53,198.62z"/>
	</g>
</g>
</svg>
