<?xml version="1.0" encoding="utf-8"?>
<!-- Generator: Adobe Illustrator 26.3.1, SVG Export Plug-In . SVG Version: 6.00 Build 0)  -->
<svg version="1.1" id="Layer_1" xmlns="http://www.w3.org/2000/svg" xmlns:xlink="http://www.w3.org/1999/xlink" x="0px" y="0px"
	 viewBox="0 0 120 120" style="enable-background:new 0 0 120 120;" xml:space="preserve">
<style type="text/css">
	.st0{fill:#68BD4F;}
</style>
<g>
	<g>
		<path class="st0" d="M59.72,9.25c28.3,0.1,51.39,22.95,51.33,51.56c-0.06,28.27-23.08,51.47-51.85,51.25
			c-28.1-0.21-51.01-22.95-51.02-51.37C8.15,32.09,31.27,9.24,59.72,9.25z M75.82,47.99c0-0.05,0-0.1,0-0.15
			c-0.92,0-1.84,0.03-2.75-0.01c-0.66-0.03-0.85-0.34-0.62-0.96c0.37-0.99,0.81-1.95,1.12-2.95c1.12-3.58,1.75-7.23,1.49-11
			c-0.09-1.32-0.15-2.64-0.65-3.9c-0.36-0.92-0.99-1.52-1.95-1.78c-1.23-0.33-2.47-0.28-3.69-0.06c-1.54,0.28-1.88,0.78-1.85,2.32
			c0.02,0.94,0.12,1.9-0.03,2.81c-0.32,2-0.89,3.94-1.84,5.75c-1.57,2.98-3.61,5.61-5.88,8.07c-1.88,2.04-4,3.84-6.08,5.68
			c-2.08,1.85-3.08,4.16-2.98,6.96c0.04,1.21-0.02,2.43-0.05,3.64c-0.07,2.69-0.19,5.38-0.23,8.07c-0.02,1.59,0.01,3.18,0.12,4.76
			c0.11,1.58,0.23,3.18,0.56,4.72c0.47,2.19,1.78,3.68,4.07,4.23c1.38,0.33,2.77,0.42,4.17,0.42c5.15-0.01,10.3-0.05,15.46-0.1
			c1.4-0.02,2.83,0.02,4.19-0.26c4.5-0.92,7.39-3.68,8.62-8.11c0.2-0.72,0.25-1.48,0.36-2.22c0.34-2.27,0.68-4.53,1.01-6.8
			c0.5-3.47,1.01-6.94,1.49-10.41c0.22-1.62,0.64-3.22,0.47-4.89c-0.19-1.85-1.89-3.59-3.55-3.83c-0.79-0.12-1.61-0.01-2.41-0.01
			C81.52,47.99,78.67,47.99,75.82,47.99z M35.93,51.42c0,0.06,0,0.11,0,0.17c-0.7,0-1.4-0.03-2.1,0.01
			c-2.27,0.11-4.01,2.27-3.99,4.24c0.05,4.18,0.1,8.36,0.16,12.54c0.04,2.34,0.11,4.68,0.15,7.03c0.03,1.78,0.01,3.56,0.02,5.35
			c0,0.65,0.19,1.2,0.69,1.66c0.33,0.31,0.58,0.71,0.86,1.07c0.76,0.94,1.66,1.56,2.96,1.53c3.21-0.09,6.41-0.18,9.62-0.15
			c2.22,0.02,4.46-1.9,4.37-4.45c-0.03-0.75-0.01-1.51-0.02-2.27c-0.05-3.32-0.12-6.64-0.16-9.95c-0.05-4.18-0.08-8.36-0.15-12.54
			c-0.01-0.6-0.15-1.26-0.43-1.79c-0.82-1.58-2.15-2.45-3.98-2.45C41.27,51.41,38.6,51.42,35.93,51.42z"/>
	</g>
</g>
</svg>
